<svg xmlns="http://www.w3.org/2000/svg" width="70" height="70" viewBox="0 0 70 70"><style type="text/css">.st0{fill:#C71B1B;} .st1{fill:#568839;} .st2{fill:#F5BE15;} .st3{fill:#919191;} .st4{fill:#246BB2;} .st5{fill:#7C5B3A;} .st6{fill:url(#SVGID_1_);} .st7{opacity:0.25;fill:url(#SVGID_2_);} .st8{fill:#231F20;} .st9{fill:#FFFFFF;} .st10{fill:url(#SVGID_3_);} .st11{opacity:0.5;} .st12{fill:none;stroke:#231F20;stroke-width:4;stroke-miterlimit:10;} .st13{fill:none;stroke:#231F20;stroke-miterlimit:10;} .st14{opacity:0.5;fill:none;stroke:#231F20;stroke-width:1.5;stroke-miterlimit:10;} .st15{fill:none;stroke:#231F20;stroke-width:0.5;stroke-miterlimit:10;} .st16{fill:none;stroke:#FFFFFF;stroke-width:0.9309;stroke-linecap:round;stroke-miterlimit:10;} .st17{fill:none;stroke:#231F20;stroke-width:1.5;stroke-miterlimit:10;} .st18{fill:none;stroke:#FFFFFF;stroke-width:1.5;stroke-miterlimit:10;} .st19{opacity:0;} .st20{opacity:2.857143e-02;fill:#020102;} .st21{opacity:5.714286e-02;fill:#030303;} .st22{opacity:8.571429e-02;fill:#050405;} .st23{opacity:0.1143;fill:#070606;} .st24{opacity:0.1429;fill:#080708;} .st25{opacity:0.1714;fill:#0A0909;} .st26{opacity:0.2;fill:#0C0A0B;} .st27{opacity:0.2286;fill:#0D0C0C;} .st28{opacity:0.2571;fill:#0F0D0E;} .st29{opacity:0.2857;fill:#110F0F;} .st30{opacity:0.3143;fill:#121011;} .st31{opacity:0.3429;fill:#141212;} .st32{opacity:0.3714;fill:#161314;} .st33{opacity:0.4;fill:#171515;} .st34{opacity:0.4286;fill:#191617;} .st35{opacity:0.4571;fill:#1B1818;} .st36{opacity:0.4857;fill:#1C191A;} .st37{opacity:0.5143;fill:#1E1B1B;} .st38{opacity:0.5429;fill:#201C1D;} .st39{opacity:0.5714;fill:#211E1E;} .st40{opacity:0.6;fill:#231F20;} .st41{fill:#FFFFFF;stroke:#231F20;stroke-width:2;stroke-linecap:round;stroke-miterlimit:10;} .st42{fill:#46250F;} .st43{fill:none;} .st44{fill:#EC008C;} .st45{fill:none;stroke:#231F20;stroke-width:3;stroke-miterlimit:10;} .st46{opacity:0.5;fill:#FFE2B9;} .st47{fill:#F9F9F9;} .st48{fill:none;stroke:#231F20;stroke-width:2;stroke-miterlimit:10;} .st49{opacity:0.75;clip-path:url(#SVGID_5_);fill:#FFFFFF;} .st50{opacity:0.5;clip-path:url(#SVGID_5_);fill:#FFFFFF;} .st51{opacity:0.25;clip-path:url(#SVGID_5_);fill:#FFFFFF;} .st52{opacity:0.1;clip-path:url(#SVGID_5_);fill:#FFFFFF;} .st53{clip-path:url(#SVGID_5_);}</style><radialGradient id="SVGID_1_" cx="35" cy="35" r="35" gradientUnits="userSpaceOnUse"><stop offset="0" stop-color="#EC1C24"/><stop offset="1" stop-color="#660007"/></radialGradient><path class="st6" d="M70 62c0 4.4-3.6 8-8 8h-54c-4.4 0-8-3.6-8-8v-54c0-4.4 3.6-8 8-8h54c4.4 0 8 3.6 8 8v54z"/><radialGradient id="SVGID_2_" cx="15.75" cy="62.5" r="78.296" gradientUnits="userSpaceOnUse"><stop offset="0" stop-color="#EC1C24"/><stop offset="1" stop-color="#660007"/></radialGradient><path class="st7" d="M16.9 70l-.7-7.7v7.7h.7zm1.5 0l-2.1-7.7 1.4 7.7h.7zm1.5 0l-3.7-7.7 2.9 7.7h.8zm-4.3 0l.7-7.7-1.4 7.7h.7zm-4.9 0l5.5-7.7-6.5 7.7h1zm3.4 0l2.1-7.7-2.8 7.7h.7zm7.7 0l-5.5-7.7 4.5 7.7h1zm-9.2 0l3.7-7.7-4.6 7.7h.9zm57.4-21.9l-53.8 14.2 53.8-9.4v-4.8zm-62 21.9h.4l7.9-7.7-9.3 7.6c.3.1.7.1 1 .1zm54 0c2.6 0 5-1.3 6.4-3.3l-52.2-4.5 44.7 7.8h1.1zm8-8v-4.4l-53.8 4.6h53.7c.1 0 .1-.1.1-.2zm0-36.8l-53.8 37.1 53.8-30.6v-6.5zm-36.9 44.8l-16.9-7.7 13.7 7.7h3.2zm-5.6 0l-11.2-7.7 9.4 7.7h1.8zm18.1 0l-29.4-7.7 21.7 7.7h7.7zm-21.5 0l-7.9-7.7 6.6 7.7h1.3zm45.9-32.5l-53.8 24.8 53.8-19.3v-5.5zm-59.3-37.5l5.6 62.3v-62.3h-5.6zm-10.1 4.9l15.6 57.4-11-61.8c-2.1.8-3.7 2.4-4.6 4.4zm-.6 23.1l16.2 34.3-16.2-44v9.7zm21.8-28l-5.5 62.3 11.1-62.3h-5.6zm11.4 0l-17 62.3 23-62.3h-6zm28.8 0h-1.5l-44.3 62.3 51.2-60.2c-1.4-1.3-3.3-2.1-5.4-2.1zm8 9.3l-53.8 53 53.8-44.5v-8.5zm-70 30.1l16.2 22.8-16.2-27.7v4.9zm45.7-39.4l-29.5 62.3 36.5-62.3h-7zm-45.7 60.9l16.2 1.4-16.2-2.9v1.5zm1.2 5.3l15-4-15.6 2.8.6 1.2zm4.4 3.4l10.7-7.4-12 6.8c.4.3.8.5 1.3.6zm-5.6-23.3l16.2 16-16.2-19.1v3.1zm3.1 22l13.2-6.1-14.2 5.1c.3.4.6.7 1 1zm-2.9-4.7l16.1-1.4-16.3.1c0 .4.1.9.2 1.3zm-.2-12.5l16.2 11.2-16.2-13.5v2.3zm0 3.7l16.2 7.5-16.2-9.3v1.8zm0 3.2l16.2 4.3-16.2-5.9v1.6z"/><path class="st8" d="M25.6 51.6h3l1-3h3v3h3l1-19h-5l-6 19zm7-6h-2l2.5-9.5-.5 9.5zM46.6 32.6h-6l-3 19h3l1-7h3c1.1 0 2.8-.9 3-2l1-8c.1-1.1-.9-2-2-2zm-2 9h-3l1-6h3l-1 6zM57.6 32.6h-6l-3 19h3l1-7h3c1.1 0 2.8-.9 3-2l1-8c.1-1.1-.9-2-2-2zm-2 9h-3l1-6h3l-1 6zM37.3 26.5l4-6.7-26.8 10.3-2.4 4.4 8.6-2.8-8.3 20.7 4.8 11.2 11-34.3zM25.6 51.6h3l1-3h3v3h3l1-19h-5l-6 19zm7-6h-2l2.5-9.5-.5 9.5zM46.6 32.6h-6l-3 19h3l1-7h3c1.1 0 2.8-.9 3-2l1-8c.1-1.1-.9-2-2-2zm-2 9h-3l1-6h3l-1 6zM57.6 32.6h-6l-3 19h3l1-7h3c1.1 0 2.8-.9 3-2l1-8c.1-1.1-.9-2-2-2zm-2 9h-3l1-6h3l-1 6zM37.3 26.5l4-6.7-26.8 10.3-2.4 4.4 8.6-2.8-8.3 20.7 4.8 11.2 11-34.3z"/><path class="st9" d="M25 51h3l1-3h3v3h3l1-19h-5l-6 19zm7-6h-2l2.5-9.5-.5 9.5zM46 32h-6l-3 19h3l1-7h3c1.1 0 2.8-.9 3-2l1-8c.2-1.1-.9-2-2-2zm-2 9h-3l1-6h3l-1 6zM57 32h-6l-3 19h3l1-7h3c1.1 0 2.8-.9 3-2l1-8c.2-1.1-.9-2-2-2zm-2 9h-3l1-6h3l-1 6zM36.8 25.9l3.9-6.7-26.7 10.4-2.5 4.3 8.7-2.7-8.3 20.7 4.8 11.2 11-34.3zM25 51h3l1-3h3v3h3l1-19h-5l-6 19zm7-6h-2l2.5-9.5-.5 9.5zM46 32h-6l-3 19h3l1-7h3c1.1 0 2.8-.9 3-2l1-8c.2-1.1-.9-2-2-2zm-2 9h-3l1-6h3l-1 6zM57 32h-6l-3 19h3l1-7h3c1.1 0 2.8-.9 3-2l1-8c.2-1.1-.9-2-2-2zm-2 9h-3l1-6h3l-1 6zM36.8 25.9l3.9-6.7-26.7 10.4-2.5 4.3 8.7-2.7-8.3 20.7 4.8 11.2 11-34.3z"/><linearGradient id="SVGID_3_" gradientUnits="userSpaceOnUse" x1="35" y1="8.691" x2="35" y2=".591"><stop offset="0" stop-color="#231F20"/><stop offset="1" stop-color="#6D6E70"/></linearGradient><path class="st10" d="M.2 15.5v-7.5c0-4.3 3.5-7.8 7.8-7.8h54c4.3 0 7.8 3.5 7.8 7.8v7.5h-69.6z"/><path class="st8" d="M62 .3c4.2 0 7.7 3.4 7.7 7.7v7.3h-69.4v-7.3c0-4.2 3.4-7.7 7.7-7.7h54m0-.3h-54c-4.4 0-8 3.6-8 8v7.7h70v-7.7c0-4.4-3.6-8-8-8z"/><path class="st9" d="M31.8 2.6c.2 0 .3.2.4.3.2.1.4.3.5.5.1.1-.6 1.5-.7 1.8-.3.7-.7 1.5-.9 2.3h1.1c.4 0 1.4 0 1.4-.1.1-.1.5-1.2.6-1.4.3-.5.9-2.1 1.4-2.9.3 0 .3.1.5.2.3.2.5.4.3.9-.4.7-.7 1.5-1.1 2.3l-.3.8c1.1 0 2.1-.1 2.9 0 .3.1.4.1.6.2.2.1.2.1.3.2.2.2.3.3.4.7.9-.2 1.5-1.2 2.2-2.3.3.1.3.3.2.5-.1 1.1 1.2.5.8 1.2-.4.8-.9 1.6-1.3 2.5-.6 1.5.4 1.2 1 .5.7-.7 1.2-1.6 1.6-2.6.2-.5.5-.9.6-1.5-.3 0-1.2.2-1.1-.2.1-.5 1-.2 1.4-.4.3-.1.7-1.1.8-1.3.1-.3.2-.6.4-.8.4.1.7.4.9.7.2.4-.2.9-.3 1.2.6.1 3.6-.3 3.8 0 .1.2.1.5 0 .6-1.4.2-2.9 0-4.3.1-.3.8-2.4 4.5-1.8 4.8.2.2 1-.2 1.6-1 .5-1.2 1.2-2.9 2.5-3.1 1.3-.2 1.8.6 2 1.6.5-.1.9-.4 1.3-.7.2-.2.6-.7.8-.7.2 0 .4.3.5.4.2.4.4.7.2 1.1l-.7 1.3c.8-.7 1.7-1.4 2.4-2.2.1-.1.2-.3.3-.3.3-.1.8.6.7.9l-.2.4-.8 1.5c-.1.4-.2 1.2.2 1.1.5-.5.8-1 1.2-1.6.4-.5.9-1.1 1.3-1.7.3-.4.7-1 1.1-1.2.3-.1.2.2.3.4.6 1-.1.7-.1 1.7 0 .4.3.6.4 1.1.2 1.4-.8 2.2-2.1 1.8-.2-.1-1-.3-.7-.6.1-.2.3-.5.6-.6 0 .2 0 .2.1.4s.2.5.4.5c1.2.1.2-1.4.2-1.7 0-.5.1-.9.1-1.3 0-.1-.1 0-.1.1-.6.7-1.2 1.6-1.7 2.5-.2.3-.4.6-.7.7-1.2.7-1.9-.3-1.6-1.6l.3-.9c-.9.5-2.3 2.4-2.5 2.5-.3.1-.6-.3-.7-.4-.1-.1-.2-.3-.2-.5.2-.8.8-1.4 1.1-2.1-.2.1-1.3.6-1.4.7-.1.1-.2.5-.2.7-.3.7-.8 1.4-1.4 1.8-1.3.8-2.2.2-2.6-.9-.3.2-.5.4-.7.6-1 .6-2.2.6-2.3-.8-.2.2-.4.6-.7.7-.4.3-1.6.6-2.1.2-.9-.7.4-2.7.7-3.2-.2-.4.1-.7.1-.8 0-.2-.1-.3-.2-.4l-1.1 1-.6.3c-.1.3-.1.6-.2 1-.4 1-1.3 2.5-2.8 2.2-2-.3-1.4-2.8-.5-3.8.2-.2.4-.4.7-.6v-.1c-.4 0-1.3-.1-1.6.1-.1.1-.2.5-.3.7l-.9 1.9c-.2.6-.4 1.3-.7 1.8v.1c-.2.1-.5-.1-.6-.2-.1-.1-.2-.2-.2-.4 0-1 .1-1.1-.4-2.3-.2-.4-.6-.8-1-1l-1.7 3.9c-.3-.1-.5-.2-.6-.4-.1-.1-.3-.3-.4-.5v-.4c.5-.9.8-1.9 1.2-2.9-.3 0-.4 0-.6-.3.2-.3.7-.2.9-.4l.3-.7c.1-.2 1.6-4 1.8-4.1.2-.1.3-.1.3-.1zm-17.7 1c-.6.1-1.7.1-2.1.2-.3.2-.5.8-.5 1.2h.5c1-.1 2-.3 3.1-.3-1 1.9-1.9 3.9-2.7 5.9l-.4.9c-.1.4.8 1.3 1.3 1.1.1 0 .1-.2.2-.3.6-1.4 1-2.8 1.6-4.1.2-.5.5-1.1.7-1.7.1-.2.4-.5.4-.8 0-.4-.4-.8-.5-1.1 1.4-.2 3-.2 4.5-.3.6 0 1.2.1 1.7 0 .3-.1.1-1-.1-1.1-.2-.2-.6-.2-.8-.1-2.4.1-4.6.3-6.9.5zm4.5 3.3c1.1-.3 1-2.1-.4-1.9-1.1.2-.9 2.3.4 1.9zm-2.2 1.6c-.1.3-1.1 2.5-1 2.8 0 .1.3.3.4.4.1.1.3.4.5.4.6.1 2.8-2.1 3.2-2.6l-.7 1.5-.2.6c.2.1.8.6 1.1.5.2-.1.2-.3.3-.5.6-.7 1.3-1.4 2-2 .2-.2.3-.3.1 0-.3.5-.5.9-.7 1.4-.1.3-.2.4.1.6.2.1.5.5.7.5.1 0 1-1.2 1.2-1.3l.6-.6c.1-.1.8-.8.7-.5-.1.2-.2.3-.2.5-.4.7-.8 2.4.7 2.2.3 0 .4-.1.5-.2l.2-.2c.1 0 0-.2 0-.2-.2 0-.4 0-.5-.2-.2-.5.6-1.9.8-2.2.1-.2.5-.4.4-.7 0-.1-.2-.3-.2-.3-.2-.1-.4-.4-.7-.4-.2.1-.4.4-.6.6-.5.4-.9.8-1.3 1.2-.2.2-.4.6-.7.7v-.2l1-1.7c.1-.2-.1-.4-.2-.5-.1-.1-.4-.4-.5-.4-.4-.1-1.6 1.4-1.9 1.7l-1 1c0-.1.1-.2.1-.2l.4-.9c.2-.4.8-1.1.4-1.4-.1-.1-.5-.6-.8-.5-.1 0-.1.1-.1.1-1.2 1.3-2.2 2.7-3.6 3.7.2-1 1.4-2.9 1.3-3.2 0-.1-.3-.3-.4-.4-.1-.1-.3-.4-.5-.4-.3 0-.8 1.1-.9 1.3zm16.5-.6c-.5 0-1 .1-1.4.1.3.3.7.7.9 1.1l.3.5c.3-.5.5-1.2.7-1.8-.1.1-.4.1-.5.1zm4.3.7c-.4.3-1 1-1.1 1.5-.2.9.5 1.4 1.2 1.1.6-.3 1-.9 1.2-1.7-.8 0-1-.4-1.3-.9zm10.9.4c-.4.3-.7.8-.9 1.4-.2.8.4 1.4 1.1 1.1.6-.3.9-.9 1-1.6-.7-.2-1-.4-1.2-.9zM60.2 11.7c.4 0 .8.3.8.8s-.4.8-.8.8-.8-.3-.8-.8.4-.8.8-.8zm0 1.4c.3 0 .6-.3.6-.6s-.3-.6-.6-.6-.6.3-.6.6.3.6.6.6zm-.3-.9l.4-.1c.2 0 .3.1.3.3 0 .2-.1.2-.2.2l.1.2v.1s0 .1-.1.1c0 0-.1 0-.1-.1l-.2-.3h-.1v.3c0 .1 0 .1-.1.1s-.1 0-.1-.1v-.7zm.2.2h.2c.1 0 .1 0 .1-.1s-.1-.1-.1-.1h-.2v.2z"/></svg>